<svg width="207" height="207" viewBox="0 0 207 207" fill="none" xmlns="http://www.w3.org/2000/svg">
<path d="M119.854 5.71705C137.553 -0.20811 154.528 -1.6991 168.829 2.05107L169.038 2.10671L169.162 2.13625L169.165 2.13682L169.293 2.17497C173.292 3.26009 176.972 4.73076 180.321 6.5548L180.458 6.62479L180.461 6.62623L180.464 6.62796L180.568 6.69048C185.344 9.32983 189.44 12.694 192.825 16.6883L192.966 16.8429L192.968 16.8452L192.97 16.8478L193.145 17.0695C193.563 17.5744 193.969 18.0893 194.365 18.6136L194.383 18.632L194.389 18.6377L194.394 18.6443L194.478 18.7634C195.435 20.0438 196.326 21.3814 197.15 22.7732L197.222 22.8693H197.207C197.453 23.2868 197.692 23.7093 197.926 24.1364L197.949 24.18C197.953 24.1868 197.957 24.1938 197.961 24.2007L198.031 24.3217H198.027C198.084 24.4275 198.141 24.5337 198.197 24.64L198.243 24.7235C198.496 25.2015 198.74 25.6854 198.977 26.175L199.065 26.3508L199.067 26.3542L199.068 26.3579L199.081 26.3899C199.309 26.8639 199.529 27.3437 199.742 27.8281L199.776 27.8963L199.779 27.9041L199.811 27.9867C200.456 29.4661 201.037 30.9944 201.551 32.569C201.596 32.706 201.64 32.8436 201.684 32.9814L201.691 32.9885L201.698 33.0123L201.723 33.1048C202.199 34.6167 202.616 36.1702 202.972 37.7633L202.992 37.8218L202.994 37.8283L202.995 37.8333L202.997 37.8383L203.12 38.4255L203.121 38.4292L203.136 38.5172C203.249 39.0575 203.355 39.6025 203.455 40.1514L203.474 40.2371H203.493V40.364C203.796 42.0653 204.032 43.8085 204.201 45.5906L204.203 45.6034L204.203 45.6089V45.6123C204.371 47.3831 204.473 49.1924 204.508 51.0381L204.512 51.0748L204.512 51.0795V51.0839L204.521 51.1764H204.512L204.512 51.286C204.525 52.0982 204.525 52.9176 204.512 53.7435V53.9017L204.512 53.9065V53.989H204.508C204.473 55.8567 204.372 57.759 204.204 59.693V59.7368H204.2C203.958 62.5085 203.579 65.3462 203.06 68.2432L202.998 68.6215L202.997 68.6242L202.913 69.0526C201.732 75.3648 199.893 81.9529 197.377 88.7477L197.279 89.0323L197.212 89.2235L197.123 89.07C197.109 89.0566 197.098 89.0388 197.094 89.0194L195.289 85.8969L193.436 82.7468L191.516 79.6672L191.466 79.5884L189.496 76.5575L189.484 76.5379L187.414 73.4475L186.179 71.688L185.284 70.391L185.258 70.3543L183.061 67.3636L181.764 65.6331L180.806 64.3348L180.782 64.3031L180.788 64.2669C180.789 64.2659 180.789 64.2649 180.789 64.2641L181.065 62.6332V62.5737L181.066 62.5672L181.282 61.022L181.454 59.7368H181.447L181.469 59.626L181.478 59.5822L181.499 59.4742L181.653 57.9354L181.653 57.9293L181.745 56.4248L181.837 54.9753L181.868 53.5234L181.869 53.5105V53.4325L181.899 52.1375L181.871 51.1764L181.869 51.0928L181.869 51.0865V50.7792L181.807 49.4507L181.721 48.4262H181.714V48.3416L181.714 48.3376V48.1851L181.591 46.9253L181.437 45.7522L181.252 44.5807L181.093 43.5939L181.068 43.4409L180.946 43.013L180.944 43.0088L180.943 43.0046L180.82 42.3556L180.574 41.3439L180.571 41.3316L180.317 40.4845H180.294V40.4061L180.293 40.3917L180.293 40.344L179.989 39.4013L179.68 38.4742L179.435 37.8936L179.434 37.8902L179.433 37.8868L179.342 37.6135L178.974 36.7842L178.609 35.9949L178.604 35.9834L178.595 35.9666L178.204 35.2131L177.804 34.4755L177.375 33.7688L176.912 33.0907L176.451 32.4448L175.495 31.2111L174.449 30.1025L173.681 29.3964L172.883 28.6905L172.021 28.0123L171.221 27.4608L171.13 27.3974L170.423 26.9409L170.175 26.7813L169.592 26.4745L169.589 26.4727L169.157 26.2261L168.082 25.6728L166.945 25.1813L165.744 24.7186L165.739 24.7172L164.791 24.4419L164.788 24.441L164.785 24.4399L164.452 24.3188L163.093 23.948L161.677 23.6093L160.168 23.3012L160.061 23.2843L158.595 23.0543L156.93 22.869L155.175 22.7457L153.361 22.6843H151.454L149.498 22.7147L147.463 22.869L146.461 22.9576L145.362 23.0549L143.236 23.3009L141.014 23.6405L138.761 24.0733L136.446 24.5672L136.436 24.5695L134.086 25.119L134.07 25.123L131.662 25.7712L129.226 26.4805L129.136 26.5094L126.726 27.2834L124.224 28.1795L122.311 28.9203L121.718 29.1464L121.663 29.1676L119.101 30.2168L116.512 31.327L116.509 31.3288L113.883 32.5338L111.291 33.8152L111.262 33.8303L111.242 33.8406L108.605 35.1887L105.949 36.6104L103.294 38.093L100.639 39.6677L98.7867 40.8104L97.9513 41.3059L97.2499 41.7543L95.2973 43.0039L95.2926 43.0067L94.7759 43.372L94.7735 43.3738L92.6744 44.7628L92.6239 44.7987L90.9141 45.9993L90.0172 46.6174L87.393 48.5017L87.3886 48.5048L84.8983 50.3733L84.7998 50.4472L83.5651 51.4044L82.206 52.4554L80.2788 54.0199H80.2851L80.0865 54.1758L80.076 54.1845L79.6423 54.5254L77.113 56.6541L74.612 58.847L72.1531 61.092L72.1419 61.1027L69.7011 63.3585L67.3243 65.7055L67.2936 65.7356L64.9461 68.0847L62.6623 70.4916L61.5196 71.7284L60.3989 72.9099L60.3761 72.9342L58.1853 75.4339L56.026 77.9337L56.0016 77.9703H55.9956L53.8926 80.501L53.5229 80.9635L51.8239 83.0649L51.0527 84.0824L49.9614 85.5104L49.8482 85.659L47.9032 88.2522L46.0198 90.878L44.1974 93.505L42.4384 96.1596L40.7987 98.7246L40.74 98.8158L40.724 98.8422L39.1421 101.459L39.1345 101.472L38.2077 103.048L37.559 104.13L37.5529 104.14L36.4176 106.228L36.4155 106.232L36.0785 106.783L36.0526 106.833L34.7197 109.409L34.7129 109.423L34.7024 109.433L34.683 109.452L33.3618 112.095L33.1459 112.558L32.1269 114.72L30.9596 117.332L30.3051 118.86L29.8423 119.939L29.8415 119.942L28.8613 122.484L28.8555 122.501L27.9031 125.02L27.9033 125.065L27.9036 125.158H27.8758L27.0326 127.569L26.8482 128.183L26.2615 130.038L25.9222 131.241L25.5512 132.478L25.1194 134.144L24.9345 134.854L24.4669 136.87L24.4405 136.986L24.3786 137.233L23.9159 139.516L23.515 141.767L23.5127 141.783L23.2065 143.96L23.2008 144.01L23.052 145.379L22.9614 146.074L22.9597 146.088L22.8066 148.141L22.8063 148.145V148.15L22.8066 148.243H22.8003L22.6822 150.165L22.6819 150.169V150.468L22.6822 150.777V150.87L22.6512 152.108L22.6822 153.402V153.96L22.7745 155.742L22.796 155.938L22.8055 156.02L22.8057 156.022L22.9287 157.473L23.083 158.552L23.0833 158.554L23.1432 159.097L23.1449 159.109L23.4213 160.678L23.7298 162.19L24.0589 163.567L24.0698 163.61L24.4683 164.931L24.7866 165.827H24.7895L24.8049 165.879L24.8084 165.888L24.8098 165.893L24.8927 166.17L24.901 166.198L25.3634 167.369L25.8855 168.475L26.4082 169.551L26.9629 170.477L26.976 170.499V170.558L27.1867 170.874L27.5766 171.458L28.2246 172.354L28.898 173.181L29.607 173.952L30.3446 174.721L30.3795 174.753L31.1063 175.422L31.1137 175.429L31.9147 176.106L32.7747 176.752L33.5523 177.261H33.5563L33.5812 177.28L33.6579 177.337L33.6991 177.368L34.6811 177.952L34.9445 178.092L35.7287 178.507L36.8077 179.031L37.9711 179.521L37.9774 179.523L38.9005 179.87L39.2089 179.985L40.3959 180.353L40.4997 180.385L41.8892 180.756L43.3353 181.063L44.876 181.341L45.5162 181.433H45.519L45.5264 181.434L46.4838 181.588L47.8702 181.714L48.1741 181.742L49.0249 181.802L49.9321 181.865L51.7843 181.927L53.6963 181.896L55.7003 181.804L57.7368 181.68L59.8631 181.465L62.0232 181.156L64.2373 180.786L64.2444 180.785L64.2856 180.777L64.3188 180.802L64.3715 180.842L64.442 180.895L64.7884 181.155L64.8072 181.169L64.8127 181.173L64.8164 181.176L64.8473 181.202L65.5925 181.765L65.6502 181.804L65.6701 181.817L65.6738 181.819L65.678 181.822L65.7759 181.896H65.8383V181.943L66.0223 182.082H66.0123L67.3256 183.074L67.3452 183.089L67.3809 183.115L70.3711 185.282L71.5269 186.1L73.0267 187.135L73.0288 187.137L73.4276 187.444L75.5891 188.865L75.5914 188.866L76.5156 189.513L76.6356 189.591L79.6355 191.522L79.6939 191.558L80.5298 192.078L82.7528 193.467L82.7699 193.477L85.9024 195.321L85.9742 195.362L86.2045 195.494L89.0016 197.114C89.0276 197.109 89.054 197.116 89.0744 197.132H89.5411L89.2259 197.244L89.0386 197.312L88.1733 197.621L88.1587 197.626L87.6794 197.794C87.0003 198.039 86.3234 198.278 85.6485 198.509L85.0225 198.733L85.0078 198.738L82.734 199.476L81.9007 199.753L81.8978 199.754L80.2219 200.253H80.3108L79.6104 200.434L79.0701 200.575C78.2656 200.803 77.4646 201.02 76.6676 201.229L76.5203 201.269L76.334 201.315C75.7851 201.457 75.2379 201.594 74.6927 201.726L74.1597 201.86H74.2514L73.437 202.04L73.4295 202.042L73.4268 202.043L72.885 202.163L72.5931 202.228L70.3986 202.692L70.3957 202.693L69.6827 202.82C69.1047 202.932 68.5293 203.039 67.956 203.14L67.3691 203.249L67.3651 203.249L67.0714 203.291C66.3246 203.416 65.5821 203.531 64.8434 203.637L64.3704 203.713L64.366 203.713L63.9999 203.754C63.4712 203.825 62.9445 203.892 62.4202 203.953L61.4331 204.084L61.4305 204.084L61.4276 204.084L61.3765 204.088L60.7681 204.131C60.1762 204.19 59.5869 204.242 59.001 204.288L58.5249 204.332L57.5966 204.393L57.034 204.421C56.6176 204.444 56.2029 204.464 55.7896 204.481L55.6788 204.487H55.655L55.6413 204.487C54.7426 204.522 53.8517 204.542 52.9687 204.547L52.927 204.548L52.7816 204.548C52.0152 204.551 51.2548 204.542 50.5004 204.522L50.0817 204.517L50.078 204.517L49.7908 204.5C49.3412 204.484 48.8939 204.464 48.4487 204.44L47.3608 204.394L47.3548 204.393L46.7765 204.332L46.7697 204.332L46.4372 204.302C46.1277 204.276 45.8193 204.248 45.512 204.219L44.7065 204.147H44.7034L44.6989 204.146L44.081 204.084L44.0776 204.084L42.0797 203.807H42.0755L42.0687 203.806L41.4584 203.714L41.4479 203.712L39.5331 203.373L38.9131 203.249L37.0278 202.846L37.0234 202.845L36.4372 202.691L34.6146 202.227L34.6109 202.226L34.4005 202.163L33.9931 202.041L33.9826 202.038L33.3878 201.86H33.419L32.2456 201.489H32.2412L32.2249 201.483L31.6954 201.277C31.3592 201.16 31.0254 201.04 30.6936 200.917L29.9568 200.654L29.939 200.648L29.383 200.432L27.7136 199.751L27.7092 199.749L27.7052 199.747L27.1843 199.471L25.5782 198.73L25.5742 198.728L25.5701 198.725L25.1504 198.479C24.8831 198.341 24.6179 198.2 24.3542 198.057L23.5044 197.615L23.5004 197.613L22.9752 197.304L21.4915 196.408L21.4863 196.404L20.7205 195.869C20.4773 195.707 20.2358 195.542 19.9963 195.375L19.5743 195.108L19.5711 195.106L19.5677 195.104L17.7448 193.713L17.6221 193.621L17.6198 193.619L16.8898 192.999C16.7583 192.889 16.6276 192.778 16.4973 192.666L15.9807 192.227L15.9767 192.224L15.7553 192.014C15.4323 191.723 15.1136 191.428 14.7995 191.127L14.3098 190.679L14.3072 190.677L14.3049 190.674L13.8568 190.197C13.24 189.57 12.6415 188.923 12.062 188.257L11.4611 187.582L11.4593 187.58L11.2108 187.269L9.81969 185.476L9.81424 185.469L9.8102 185.461L9.78038 185.402L9.66944 185.243C9.38575 184.852 9.10761 184.455 8.83541 184.052L8.51661 183.596L8.49051 183.559L8.48878 183.556L8.4865 183.553L8.27002 183.213L8.24968 183.181L8.17972 183.071L7.55901 182.069L7.5567 182.065L7.55498 182.061L7.54981 182.051L7.52403 181.999L7.49995 181.951C7.48022 181.918 7.46023 181.885 7.4406 181.852L7.34913 181.738L7.34053 181.727L7.33537 181.714L7.28462 181.588C7.27228 181.566 7.25994 181.545 7.24765 181.524L7.22097 181.484L7.21895 181.481L7.21725 181.478L7.1318 181.324C7.0925 181.256 7.05325 181.188 7.01426 181.119L6.87864 180.893L6.87693 180.89L6.8752 180.887L6.80813 180.753C6.7297 180.612 6.65162 180.471 6.57445 180.329L6.44658 180.122L6.44514 180.119L6.22266 179.702L6.20431 179.667L6.19687 179.653L6.19543 179.651L6.15959 179.579L6.13349 179.528L5.94887 179.157L5.94428 179.147L5.88176 179.022H5.88522L5.81583 178.875C5.69999 178.643 5.5858 178.409 5.47321 178.175L5.44884 178.126L5.42877 178.086L5.42332 178.075L5.35624 177.941H5.35996L5.14694 177.492L5.08932 177.405L5.08416 177.398L5.083 177.395L4.99384 177.261H5.02795L4.8651 176.865L4.66384 176.395C4.63541 176.329 4.60661 176.263 4.57839 176.197L4.27735 175.535L4.27623 175.531L4.15407 175.195L4.02363 174.881H4.01991L3.99782 174.82L3.99555 174.814L3.94649 174.696H3.9531L3.72 174.047L3.68646 173.954C3.59808 173.716 3.5109 173.476 3.42556 173.235L3.28939 172.909L3.28708 172.902L3.13225 172.439L2.85359 171.541L2.54566 170.615L2.54079 170.601V170.536L2.44474 170.176C2.33174 169.784 2.2222 169.389 2.11675 168.991L1.98831 168.541L1.98744 168.538L1.9258 168.291L1.92494 168.288L1.86158 167.991C1.71995 167.414 1.5866 166.834 1.46163 166.249L1.37074 165.946L1.36902 165.94L1.36816 165.934L1.26265 165.281C1.15494 164.733 1.05449 164.182 0.961038 163.627L0.936955 163.531L0.908284 163.416H0.920039L0.875885 163.107C0.805248 162.666 0.738919 162.222 0.677199 161.776L0.564811 161.083L0.564237 161.079L0.563949 161.075L0.532986 160.706L0.51091 160.481C0.397485 159.522 0.3044 158.553 0.231085 157.575L0.223917 157.489L0.219617 157.421C0.188684 156.996 0.161328 156.569 0.137905 156.141L0.131311 156.037L0.131024 156.033V156.008C0.0861885 155.16 0.0563202 154.306 0.0407122 153.445L0.0384187 153.409V153.337C-0.0171144 150.013 0.143981 146.602 0.514636 143.121L0.563949 142.579L0.564523 142.574L0.609251 142.273C0.700527 141.485 0.802429 140.693 0.914877 139.899L0.916313 139.886C1.04401 138.985 1.18564 138.079 1.34035 137.169L1.36759 136.952L1.36787 136.949L1.36845 136.946L1.54878 135.988C1.6189 135.603 1.69182 135.217 1.76668 134.831L1.76983 134.814L1.77041 134.811C2.19838 132.606 2.70363 130.379 3.28451 128.135L3.28506 128.132L3.28593 128.129C4.06692 125.113 4.98404 122.066 6.034 118.998L6.05981 118.916H6.05294L6.0988 118.791L6.118 118.731H6.12117L6.21092 118.485C6.87961 116.557 7.60044 114.621 8.37239 112.679L8.44722 112.486L8.4495 112.48L8.46326 112.45C8.60939 112.085 8.75707 111.718 8.90679 111.352C17.3894 90.6141 31.6639 69.3128 50.4865 50.4836L51.3708 49.6043C51.6858 49.2927 52.0018 48.9827 52.3183 48.6738H52.2989L52.4362 48.5591C62.7202 38.5316 73.6988 29.8512 84.8899 22.715H84.6612L85.1349 22.5584C86.1424 21.9182 87.152 21.2911 88.1623 20.6761H88.154L88.2032 20.6511C89.2453 20.0173 90.2889 19.3971 91.3336 18.7903L91.3428 18.7849C97.999 14.9188 104.697 11.6053 111.338 8.88685C114.189 7.71979 117.029 6.66302 119.851 5.71821L119.854 5.71705ZM137.505 35.6635C137.534 35.6344 137.577 35.6273 137.613 35.6457L137.629 35.6561L138.526 36.3856C176.412 67.3769 202.295 110.911 204.409 147.349L204.455 148.207C204.69 153.122 204.481 157.779 203.854 162.149H203.859L203.846 162.199C203.489 164.673 202.997 167.057 202.376 169.344L202.374 169.35H202.406L202.345 169.472L202.345 169.474L202.34 169.484L202.333 169.497C201.246 173.454 199.768 177.122 197.923 180.476L197.893 180.543L197.889 180.553L197.883 180.561L197.858 180.595C197.661 180.95 197.46 181.301 197.256 181.649H197.263L197.181 181.783L197.16 181.835H197.151L197.126 181.876L197.114 181.896H197.165L197.169 181.897L197.022 182.042C196.762 182.474 196.495 182.9 196.223 183.32L196.095 183.522L195.415 184.543L195.413 184.546L195.411 184.548L195.199 184.831C194.911 185.237 194.617 185.638 194.317 186.033L194.053 186.4L194.052 186.403L194.05 186.405L193.542 187.023C193.295 187.329 193.045 187.631 192.79 187.929L192.567 188.198L192.563 188.202L192.443 188.332C192.06 188.771 191.668 189.202 191.267 189.624L191.02 189.9L190.243 190.678L189.377 191.512L189.375 191.515L188.963 191.88C188.298 192.485 187.614 193.069 186.91 193.633L186.777 193.742L185.85 194.485L185.847 194.486L185.845 194.488L184.965 195.104C184.435 195.482 183.895 195.85 183.345 196.207L183.001 196.436L181.98 197.086L181.978 197.087L180.987 197.645L180.549 197.883C180.352 197.991 180.154 198.099 179.956 198.205L179.905 198.233L179.874 198.248C179.496 198.449 179.115 198.645 178.73 198.836L177.771 199.316L177.767 199.318L176.716 199.781L175.572 200.276L175.569 200.277L174.457 200.71L174.345 200.751C174.001 200.882 173.653 201.01 173.303 201.135L173.282 201.143L173.278 201.145L173.261 201.15C172.588 201.389 171.905 201.616 171.213 201.831L170.963 201.917L170.958 201.918L170.483 202.052C170.068 202.174 169.649 202.292 169.227 202.406L168.548 202.598L168.544 202.599L168.028 202.715C167.586 202.824 167.141 202.928 166.692 203.027L166.043 203.186L166.04 203.186L166.036 203.187L165.63 203.256L165.47 203.284C164.921 203.393 164.367 203.496 163.808 203.591L163.505 203.65L163.501 203.651L163.496 203.652L163.082 203.711C162.447 203.812 161.805 203.903 161.158 203.986L160.906 204.022L160.899 204.023H160.895L160.452 204.072C160.232 204.098 160.012 204.122 159.791 204.146L159.513 204.177L158.245 204.301L158.242 204.301L157.822 204.327C157.303 204.367 156.781 204.402 156.256 204.431L155.524 204.486L155.521 204.487H155.503L154.697 204.501C154.152 204.519 153.603 204.532 153.051 204.539L152.74 204.548L152.736 204.548L152.374 204.544C151.645 204.547 150.909 204.538 150.167 204.52L149.925 204.517L148.883 204.487H148.871L147.06 204.394H147.05L147.046 204.394L146.227 204.33C145.98 204.313 145.733 204.294 145.485 204.274L144.143 204.177L144.138 204.177L143.207 204.063C142.72 204.012 142.233 203.956 141.744 203.897L141.204 203.837L141.202 203.837L140.443 203.73C140.325 203.714 140.207 203.697 140.089 203.681L139.874 203.651L139.814 203.642C139.4 203.583 138.986 203.522 138.571 203.458L138.215 203.405H138.211L138.204 203.404L136.844 203.187L135.174 202.878L134.447 202.729C134.052 202.651 133.657 202.572 133.261 202.489L132.114 202.259L132.111 202.258L131.173 202.029C130.569 201.89 129.964 201.746 129.358 201.596L129.022 201.517L128.508 201.383C128.146 201.29 127.784 201.196 127.421 201.1L125.931 200.713L125.928 200.713L124.476 200.28L122.777 199.786L121.338 199.326L121.322 199.321L121.274 199.306L120.757 199.14H120.77L119.623 198.765L119.621 198.764L118.86 198.489C118.391 198.327 117.921 198.162 117.451 197.994L116.44 197.652L116.437 197.651L114.986 197.094L113.256 196.445L113.253 196.444L111.957 195.905C111.767 195.827 111.576 195.751 111.386 195.673L110.072 195.147L110.069 195.146L108.587 194.497L106.857 193.755L106.854 193.754L105.917 193.305C105.526 193.127 105.135 192.946 104.744 192.763L103.643 192.272L103.64 192.27L102.156 191.528L100.428 190.694L100.425 190.693L98.9426 189.921L97.2127 189.025L95.7286 188.22L94.0498 187.304L94.0275 187.292L94.0149 187.285L93.7107 187.119H93.7246L92.5355 186.439L92.513 186.426L92.4928 186.415L92.2114 186.254H92.2164L90.8143 185.438L89.353 184.585L89.3302 184.572L89.3142 184.562L89.0357 184.4H89.0433L87.6299 183.551L86.1699 182.638L86.1466 182.624L86.0675 182.574L85.8736 182.453L85.3128 182.098L85.3042 182.093L85.2966 182.086L85.2743 182.063L85.2371 182.041L85.1289 181.976L84.9043 181.835L84.88 181.82L84.5401 181.604L84.4922 181.572L84.4455 181.541L84.0747 181.293L83.551 180.954L83.5261 180.938L83.2882 180.784H83.295L83.1299 180.674C83.0057 180.593 82.8818 180.511 82.7578 180.43L82.1303 180.028L81.2949 179.47L81.2871 179.465L81.2554 179.433L80.8458 179.156C80.61 178.997 80.3744 178.838 80.1389 178.677L79.2786 178.095L79.2548 178.079L79.2207 178.056L79.0053 177.91L78.1734 177.337L78.1053 177.292L78.0791 177.274L77.8275 177.107H77.8477L77.1292 176.585C76.5384 176.167 75.9486 175.744 75.3603 175.317L75.0545 175.113L75.0506 175.11L74.0932 174.399L72.6096 173.287L71.9629 172.825L71.9592 172.822L71.0631 172.111L69.4582 170.876L69.4556 170.874L69.1836 170.65C68.7499 170.309 68.3166 169.966 67.8845 169.621L67.7891 169.546L66.0584 168.155L65.9038 168.031L65.6981 167.867H65.7047L64.2963 166.702L62.9057 165.527L62.504 165.187L61.5943 164.385C61.2269 164.066 60.8604 163.747 60.4946 163.425L59.9713 162.993L59.9676 162.99L58.9586 162.062C58.7288 161.857 58.4992 161.65 58.2705 161.443L57.0647 160.364L56.9069 160.206L56.348 159.684C55.3508 158.76 54.3603 157.824 53.3774 156.877L53.1089 156.624L52.7601 156.281C51.6342 155.187 50.5182 154.079 49.4127 152.956L48.6264 152.17L47.2673 150.748L45.9663 149.386L45.9383 149.358L45.3207 148.709L43.3757 146.578L43.2834 146.485L43.2813 146.483L42.3933 145.474C41.9248 144.95 41.4584 144.422 40.9946 143.893L40.6849 143.545L39.5409 142.216L39.4366 142.093C39.0942 141.693 38.753 141.291 38.4132 140.887L38.1501 140.577L38.0207 140.425L37.6253 139.959L35.768 137.706H35.762L35.7345 137.664L35.6721 137.571L35.6491 137.536L35.6598 137.496L36.0306 136.105L36.247 135.239L36.4016 134.683L36.8347 133.229L37.2899 131.802L37.2988 131.774L37.3093 131.741L37.6918 130.566L37.7314 130.444L37.7856 130.282L37.793 130.259L38.2874 128.776L38.8439 127.229L39.461 125.686L39.4906 125.569L39.4919 125.562L39.4945 125.556L40.0815 124.134L40.5136 123.054L40.5144 123.051L40.7305 122.557L41.4105 120.981L41.5955 120.549L41.597 120.545L42.1528 119.371L42.158 119.36L42.7112 118.144H42.7046L42.7717 118.009L42.8542 117.845L42.8951 117.762L42.9211 117.711L44.0449 115.462L44.5016 114.548L45.3679 112.908L45.4381 112.775L45.5248 112.898L45.5324 112.908L47.3388 115.451L47.3469 115.462L49.1989 117.994L50.2491 119.354L51.118 120.492L51.1455 120.528L53.1209 123.03L55.1592 125.532L57.2271 128.002L58.4641 129.401L59.2036 130.227L59.2057 130.229L59.3603 130.414L59.3626 130.417L61.5199 132.822L63.7424 135.2L64.5761 136.064L65.9353 137.455L65.9413 137.461L65.946 137.468L66.0029 137.553L68.3116 139.832L68.9601 140.45L70.6585 142.088L70.6779 142.106L73.0186 144.265L73.0364 144.281L75.4449 146.443L75.4481 146.445L75.6601 146.606H75.631L77.8831 148.573L80.3286 150.592L80.3537 150.612L82.8561 152.621L85.3621 154.547L85.3893 154.567L85.4069 154.582L87.9168 156.48L89.4308 157.53L89.4329 157.532L90.4807 158.303L93.0447 160.064L95.6083 161.794L98.1995 163.43L100.794 165.037L101.409 165.375L101.412 165.376L101.724 165.548H101.701L103.386 166.55L105.765 167.878L105.982 168.003L108.573 169.391L110.334 170.287L111.126 170.714L111.138 170.72L113.698 171.954L116.229 173.128L118.76 174.239L118.788 174.251L121.285 175.256L121.292 175.258L123.763 176.216L124.256 176.395L126.23 177.111L128.668 177.914L131.045 178.624L133.391 179.272L133.406 179.276L133.514 179.303L135.704 179.859L137.991 180.354L140.203 180.784L140.21 180.785L142.37 181.124L144.162 181.372L144.166 181.372L144.504 181.434L146.535 181.649L148.543 181.804L148.622 181.808L150.487 181.897L152.351 181.927H152.365L154.188 181.896H154.2L155.911 181.804L157.606 181.65L159.179 181.434L160.035 181.294L160.688 181.187L162.137 180.879L163.496 180.539L163.502 180.538L164.818 180.14L165.782 179.818L166.021 179.738L167.188 179.278L168.3 178.783L169.343 178.262L170.329 177.706L171.25 177.124L171.714 176.792L172.114 176.506L172.259 176.39L172.368 176.303H172.354L172.576 176.136L172.941 175.862L173.711 175.184L174.451 174.476L174.456 174.471L175.16 173.736L175.837 172.966L176.482 172.136L177.098 171.274L177.68 170.354L178.236 169.396L178.756 168.355L179.218 167.276L179.68 166.105L180.113 164.869L180.482 163.576L180.851 162.223L180.901 161.964L181.129 160.772L181.283 159.847L181.284 159.844L181.406 159.229L181.591 157.627L181.592 157.618L181.745 155.962L181.868 154.235L181.899 152.447L181.869 150.564L181.807 148.621L181.807 148.617L181.66 146.791H181.653V146.706L181.652 146.702V146.643L181.588 146.025L181.437 144.578L181.435 144.566L181.344 143.961L181.161 142.491L181.159 142.479L181.154 142.449L180.789 140.288L180.357 138.065L179.864 135.816L179.864 135.813L179.771 135.474L179.277 133.495L179.265 133.453L178.633 131.136L178.628 131.117L177.92 128.743L177.239 126.702L177.117 126.303L176.243 123.923H176.238L176.22 123.859L175.295 121.361L174.957 120.591L174.955 120.588L174.28 118.869L174.276 118.858L173.165 116.328L171.993 113.765L170.813 111.345H170.803L170.782 111.281L170.754 111.195L169.463 108.642L169.185 108.179L169.184 108.176L169.182 108.174L168.072 106.045L167.486 105.025L166.621 103.45L166.557 103.344L165.077 100.886L165.047 100.838L163.807 98.8291L163.779 98.7851L163.692 98.6439H163.7L163.502 98.292L161.84 95.7048L161.816 95.6806L161.81 95.6744L161.805 95.667L160.106 93.1335L158.347 90.5709L157.513 89.4274L156.504 88.0201L156.493 88.0054L155.227 86.3072L154.61 85.4742L152.634 82.941L150.654 80.4727L150.644 80.4606L150.627 80.4391L148.59 77.9683L148.584 77.9614L147.877 77.1665L147.847 77.1334L147.838 77.1219L147.712 76.9807H147.718L146.5 75.5401L146.489 75.527L146.478 75.5152L144.329 73.1189L142.475 71.1105L142.472 71.1071L142.132 70.7057L139.881 68.3614L139.667 68.146L137.598 66.0456L135.294 63.8026L135.281 63.7903L133.736 62.3067L132.936 61.5364L130.646 59.49H130.642L130.615 59.4627L130.524 59.3713L128.087 57.2111L128.074 57.1996L125.648 55.1424L125.616 55.1157L123.154 53.1089L123.147 53.1034L120.647 51.1272L118.113 49.2112L118.088 49.1918L115.581 47.3262L113.39 45.8143L113.387 45.812L113.027 45.5416L113.019 45.5358L112.896 45.4496L112.901 45.4465L113.028 45.3781L114.635 44.5126L116.273 43.6775L117.159 43.2347H117.089L117.513 43.0578L117.516 43.0563L117.883 42.9032L119.489 42.1313L121.066 41.4197L122.641 40.7088L122.644 40.7077L124.212 40.0618L124.22 40.0587L125.764 39.4099L125.766 39.4089L127.28 38.8222L128.305 38.4449H128.227L128.789 38.267L128.795 38.2649L130.311 37.7392L130.313 37.7379L131.796 37.2747L133.247 36.8114L133.251 36.8101L134.703 36.4087L136.123 36.0067L136.127 36.0059L137.454 35.6664L137.465 35.6635H137.505ZM159.183 112.909L160.048 114.547L160.882 116.185L160.884 116.188L161.656 117.795L162.391 119.387L162.41 119.406L162.569 119.565H162.489L163.139 120.979L163.82 122.557L164.499 124.133L164.501 124.136L165.095 125.653H165.104L165.12 125.716L165.706 127.226L166.263 128.774L166.272 128.8L166.788 130.289L167.283 131.773L167.375 132.051L167.735 133.192L167.746 133.226L167.748 133.23L168.149 134.681L168.272 135.082L168.273 135.085L168.551 136.105L168.551 136.107L168.877 137.468C168.905 137.494 168.914 137.534 168.901 137.569L168.902 137.572L168.897 137.578C168.894 137.584 168.891 137.589 168.886 137.595C168.868 137.617 168.85 137.64 168.832 137.662L168.442 138.164L168.44 138.166L167.503 139.287C165.699 141.471 163.847 143.623 161.949 145.74L161.704 146.018L161.702 146.02L161.624 146.1C160.139 147.749 158.626 149.376 157.087 150.979L156.666 151.428L156.341 151.753C153.013 155.185 149.568 158.507 146.021 161.701L146.016 161.712L146.002 161.724L145.557 162.118C144.99 162.627 144.419 163.131 143.847 163.633L143.594 163.855L143.431 164.003H143.459L143.254 164.165L143.228 164.189H143.224L143.071 164.309C142.467 164.833 141.86 165.353 141.251 165.869L140.75 166.299L140.748 166.301L140.585 166.431C139.603 167.256 138.613 168.072 137.618 168.877L137.601 168.893L137.564 168.927L137.515 168.914L137.474 168.903L136.135 168.546L136.125 168.543L134.704 168.173L133.251 167.77L133.247 167.769L131.795 167.306L130.806 166.976L130.312 166.811L128.799 166.317L128.795 166.316L127.282 165.759L125.736 165.172L125.733 165.171L124.205 164.529L124.189 164.522L123.372 164.189L123.354 164.182L122.649 163.875L122.644 163.873L121.085 163.2L121.067 163.192L119.459 162.45L119.447 162.444L117.963 161.748H117.956L117.939 161.736L117.932 161.732L117.886 161.701L117.845 161.674L116.245 160.904L116.242 160.903L114.636 160.068L113.03 159.234L112.98 159.208L112.98 159.153L112.979 159.122L112.979 159.073L113.018 159.046L116.026 156.896H116.023L116.204 156.769L116.262 156.728L119.412 154.387L119.504 154.318L119.51 154.313L122.714 151.817L125.894 149.223L129.014 146.535L132.1 143.787L132.81 143.108L135.096 140.944L135.585 140.455H135.581L135.724 140.316L135.743 140.297L135.77 140.27L137.969 138.131L138.061 138.04L139.823 136.221L139.974 136.065L140.001 136.036L140.963 135.045L141.332 134.645L142.66 133.192L143.774 132.017L146.519 128.931L146.673 128.746L148.003 127.199L149.182 125.838H149.177L149.298 125.688L149.324 125.653L150.564 124.112L151.8 122.628L151.857 122.542L151.859 122.539L151.861 122.536L153.097 120.961L154.214 119.527L154.302 119.415L156.708 116.174L159.026 112.898L159.113 112.775L159.183 112.909ZM37.5309 1.61512C49.0273 -1.01034 62.5124 -0.432836 77.0823 3.42402L77.3732 3.49371H77.3446C80.9483 4.4565 84.6179 5.61908 88.3395 6.98358L89.0718 7.25433L89.0883 7.26266C89.1028 7.27173 89.114 7.2847 89.1214 7.29937L89.2275 7.33781L89.1012 7.40921C89.091 7.41854 89.0789 7.42533 89.0658 7.42928L89.0527 7.43704L86.4345 8.92613L85.8874 9.23791L82.7531 11.1128L80.9737 12.1949L78.6152 13.6765L77.4109 14.4495L76.1425 15.2649L74.8433 16.1359L73.5819 16.9823L71.2413 18.6151L71.2174 18.6395L71.2117 18.6452L71.2054 18.6495L69.4587 19.8842L69.1349 20.1191H69.1406L69.0683 20.167L67.4686 21.3263L67.1602 21.5534L66.6042 21.9736H66.6173L66.392 22.1371L66.3663 22.1589H66.3626L66.2693 22.2263L65.7453 22.6224V22.6485L65.6947 22.674L65.6423 22.6998L65.5021 22.8059L65.3845 22.9006H65.4335L65.184 23.0669L65.161 23.0861H65.1557L65.1094 23.1168L64.9493 23.2238L64.4415 23.6072L64.3243 23.7114L64.2924 23.7398L64.278 23.7378L64.2428 23.7555L64.2174 23.7684L64.1897 23.7647L64.0463 23.7469L63.9423 23.734L63.9373 23.7332L62.5523 23.4871L61.7633 23.3784L60.9775 23.2705L59.4019 23.0856L57.8646 22.9315L57.8604 22.9312L56.3847 22.8082L56.3795 22.8079L55.6605 22.7626L54.8967 22.715L53.4794 22.684H52.676L52.0948 22.6533L51.8236 22.6835L51.8184 22.684H50.7362L49.4104 22.7454L48.1126 22.8389L48.1094 22.8392H48.1065L46.881 22.9616L45.6802 23.1154L44.5378 23.3009L43.431 23.4854L42.4735 23.7039L42.3501 23.7323L41.3321 23.9795L40.3645 24.2514L40.3469 24.2563L39.8606 24.3977L39.39 24.5345L38.5017 24.8405L37.6405 25.179L36.8064 25.5501L36.0049 25.9204L35.2372 26.3194L34.4983 26.7198L33.7918 27.1503L33.1142 27.6125L32.4767 28.0676L32.471 28.0718L31.9435 28.4939L31.2371 29.0594L30.134 30.1017L30.1311 30.1049L29.0861 31.2114L28.0988 32.4458L27.6384 33.0907L27.1796 33.7625L26.9653 34.1623L26.9629 34.166L26.7892 34.4542L26.7787 34.4731L26.3477 35.2117L25.9483 35.9805L25.819 36.2816H25.8276L25.7663 36.4053L25.7637 36.411L25.7614 36.4158L25.5779 36.7826L25.2396 37.6132L24.9016 38.4742L24.8296 38.6899L24.8092 38.752L24.8078 38.7559L24.5615 39.4021L24.2848 40.3543L24.2705 40.4069L24.069 41.1275L24.007 41.3431L23.7298 42.3603L23.5365 43.3272H23.5409L23.5182 43.4202L23.5145 43.4372L23.3043 44.5469L23.2983 44.5802L23.1136 45.7522L23.0979 45.9095L23.0835 46.0557L23.0752 46.1393H23.0715L22.9591 46.9253L22.8364 48.1833V48.188L22.8367 48.5811V48.5842L22.8364 48.5876L22.7745 49.4505L22.7131 50.7792L22.7128 50.7821L22.6822 52.137V53.5237L22.7131 54.9753L22.8003 56.3378H22.8057V56.423L22.9124 57.7368L22.929 57.9354L23.0526 59.1713L23.0815 59.4624L23.0833 59.4803L23.2682 61.0207L23.515 62.6264L23.7929 64.2643L23.7994 64.3031L23.7762 64.3345L23.4365 64.7981L21.5176 67.3266L21.4906 67.3625L19.2973 70.3907L17.1694 73.4444L17.1476 73.4887H17.1398L15.499 75.92L15.0753 76.5253L15.0667 76.5386L15.0423 76.5756L13.8012 78.5143L13.0609 79.6248L12.134 81.1393L11.1156 82.7447L11.1061 82.7615L10.5293 83.7637L9.27321 85.8772L9.2626 85.8956L8.98508 86.3897L7.93457 88.2444L7.48703 89.02C7.48302 89.0391 7.47309 89.0564 7.45837 89.0697L7.37379 89.2165L7.30411 89.0354L6.99534 88.2318L6.99419 88.2292L6.34623 86.3769L6.16074 85.8825L6.15959 85.8791L5.44942 83.747L5.44855 83.7443L5.25332 83.0995C5.16583 82.8262 5.07939 82.5532 4.99412 82.2807L4.61482 81.1196L4.61395 81.1162L4.18132 79.6022L3.87252 78.4894L3.31632 76.5114L3.31546 76.5088L3.16123 75.8907L2.57462 73.4187L2.54337 73.295L2.54251 73.2919L1.92494 70.4177L1.92294 70.4083V70.3449L1.90373 70.244C1.77059 69.5743 1.64477 68.9072 1.52613 68.2432L1.40027 67.5779L1.33863 67.3305L1.33777 67.3266L1.3372 67.3224L0.935522 64.7577L0.934948 64.7535L0.93466 64.7496L0.906851 64.3382C0.838355 63.8417 0.774311 63.3467 0.714184 62.8538L0.688094 62.6539L0.606096 62.0238L0.594915 61.9409L0.593768 61.9299L0.581725 61.8385L0.502308 61.0443L0.356375 59.5822L0.347202 59.4986L0.325412 59.2735H0.320824L0.316524 59.1855L0.316236 59.1805L0.307348 59.088H0.31165L0.266637 58.1937C0.230112 57.6689 0.19863 57.1461 0.172024 56.626L0.163996 56.5018L0 56.3378H0.129304L0.100347 54.9805L0.0693827 53.8061V53.3292C0.0633637 52.7687 0.0634617 52.2112 0.0693827 51.6567V50.7729L0.0699563 50.7656L0.104934 50.0115C0.118432 49.5954 0.134748 49.1808 0.155108 48.7684L0.161989 48.5811L0.161702 48.1796V48.176L0.161989 48.1726L0.254881 46.9054L0.309643 46.1393L0.31595 46.0496L0.31681 46.0402L0.317098 46.0376L0.347773 45.7287L0.471344 44.5537L0.594627 43.5373V43.4121L0.59606 43.4045L0.740274 42.5618C0.76383 42.3952 0.788025 42.2285 0.81281 42.0624L0.891942 41.4113L0.904556 41.3057L0.935234 41.0892L0.936093 41.0843L1.09063 40.3115L1.27584 39.3541L1.39941 38.7053L1.39999 38.7027L1.46134 38.4255L1.64684 37.5603L1.80739 36.8376H1.80338L1.83234 36.7223L1.92552 36.3518L1.92638 36.3489L2.04995 35.9161L2.10557 35.7175C2.18123 35.4284 2.25852 35.1402 2.33837 34.8538L2.42209 34.52H2.4155L2.45162 34.4005L2.46825 34.3347H2.4714L2.5448 34.0916L2.63139 33.8094L2.66435 33.7017L2.66807 33.6894L2.68814 33.6241L2.88485 33.0086L2.95048 32.8105C3.00577 32.6387 3.06221 32.467 3.11907 32.2962L3.22372 31.9299L3.22459 31.9273L3.50325 31.1213L3.50441 31.1181L3.93562 30.0095L3.99754 29.8245L3.99869 29.8208L4.00013 29.8174L4.17988 29.3977C4.33799 29.0025 4.50013 28.6103 4.66727 28.2217L4.77022 27.9686L4.83185 27.7846L4.83445 27.7765L4.83874 27.7692L4.97319 27.526C4.98692 27.4954 5.00099 27.4647 5.01477 27.434L5.12257 27.1652H5.1091L5.17618 27.0311L5.19654 26.98H5.20199L5.39122 26.6011L5.57642 26.1994L5.70115 25.929H5.68393L5.76566 25.7896L5.96435 25.4494C6.00861 25.3621 6.05289 25.2748 6.09767 25.1879L6.16475 25.0533L6.19027 25.002L6.23699 24.9205C6.29545 24.8088 6.35432 24.6973 6.41362 24.5861L6.50449 24.4043L6.5303 24.3533H6.53316L6.65903 24.1261L6.78289 23.8789L6.78947 23.8657L6.79979 23.8554L6.82275 23.8318L6.83535 23.812C6.91215 23.6744 6.98976 23.5372 7.06787 23.4005L7.09137 23.3537L7.09397 23.3486L7.09711 23.3437L7.11978 23.3093C7.15675 23.2449 7.19487 23.181 7.23216 23.1168H7.22642L7.311 22.9763L7.33393 22.9315H7.33794L7.38353 22.8561L7.39386 22.8392H7.37234L7.46295 22.7024L7.46468 22.6995L7.46783 22.6946L7.52086 22.6152L7.52775 22.6052L7.55526 22.5498L7.57591 22.5085V22.4681L7.6149 22.4678L7.78865 22.1589H7.78233L7.86692 22.0184L7.87438 22.0057L7.89244 21.9736L7.96009 21.864L7.96211 21.8606L8.98938 20.3047H8.96873L9.07079 20.1656L9.09403 20.1194L9.1052 20.1191L10.2818 18.519L10.2859 18.5136L10.2907 18.5084L10.3203 18.4788L10.443 18.324C10.6994 17.9904 10.9604 17.6606 11.2263 17.3348L11.6122 16.8478L11.6156 16.8437L12.0107 16.4001C12.2878 16.0793 12.5698 15.7626 12.8565 15.4499L13.1291 15.1441L13.1308 15.1421L13.1328 15.1404L13.3077 14.9652C13.585 14.6718 13.8664 14.3815 14.1524 14.0956C14.2571 13.9908 14.3626 13.8866 14.4683 13.783L14.7071 13.5346L14.7094 13.5323L14.7117 13.5303L15.0853 13.191C15.4514 12.8462 15.8232 12.5081 16.2006 12.1768H16.186L16.3712 12.0228L16.5183 11.8998C16.9872 11.4961 17.465 11.1031 17.9506 10.7198L18.1442 10.5607L18.1479 10.5575L18.3701 10.3929C20.0222 9.12155 21.7683 7.96612 23.6019 6.9268L23.9018 6.75098L23.9041 6.74956L24.0907 6.65348C24.6848 6.32618 25.2878 6.01084 25.8996 5.70759L25.9747 5.66742L25.9796 5.66514L26.0787 5.61924C26.7061 5.31152 27.3429 5.01642 27.9882 4.73388L28.1106 4.67679L28.1132 4.67566L28.2039 4.63921C29.1503 4.23022 30.1161 3.84879 31.1 3.49371H31.0704L31.551 3.33309C32.4628 3.01345 33.3901 2.71689 34.3324 2.44313H34.2567L34.8761 2.28797C35.6656 2.06731 36.4653 1.86238 37.2749 1.67363L37.3939 1.64237L37.397 1.64151L37.5309 1.61512Z" fill="black"/>
</svg>
